#!OML:ASF F:\VICON\USERDATA\INSTALL\rory3\rory3.ASF
:FULLY-SPECIFIED
:DEGREES
297
root 0.89699 17.8639 29.7929 -1.56871 1.48002 2.92925
lowerback 10.7042 -0.847015 -3.99134
upperback 0.398991 -1.57251 0.708784
thorax -5.46361 -0.663503 3.23257
lowerneck -15.8667 -2.83336 -2.09339
upperneck 21.17 -3.77913 1.545
head 9.36224 -1.7604 0.401458
rclavicle -2.41026e-015 6.75868e-015
rhumerus -35.5549 -29.9019 -73.2553
rradius 20.6903
rwrist 9.97034
rhand -17.8207 21.6904
rfingers 7.12502
rthumb 8.44336 -8.12077
lclavicle -2.41026e-015 6.75868e-015
lhumerus -25.2991 0.885436 80.9657
lradius 30.4821
lwrist 8.52529
lhand -28.8636 24.0163
lfingers 7.12502
lthumb -2.22001 53.9845
rfemur -29.0653 5.35191 16.3868
rtibia 25.102
rfoot -6.15683 -15.0796
rtoes -0.480787
lfemur 7.63252 -1.19848 -27.1783
ltibia 17.3822
lfoot -15.6588 -1.6569
ltoes -3.86177
298
root 0.88231 17.8699 29.9715 -1.35042 1.55081 2.73415
lowerback 10.4247 -0.943311 -3.9781
upperback 0.313256 -1.68223 0.828404
thorax -5.38462 -0.71722 3.36029
lowerneck -15.5167 -2.7661 -2.06953
upperneck 20.986 -3.69038 1.52631
head 9.2307 -1.72295 0.408039
rclavicle 1.70209e-014 -3.57812e-015
rhumerus -35.7639 -29.9998 -73.091
rradius 20.5592
rwrist 10.1776
rhand -17.524 22.1168
rfingers 7.12502
rthumb 8.72973 -7.6827
lclavicle 1.70209e-014 -3.57812e-015
lhumerus -25.3774 0.967913 80.8636
lradius 30.7497
lwrist 8.33188
lhand -28.6594 24.9014
lfingers 7.12502
lthumb -2.02273 54.8716
rfemur -28.7659 6.47108 16.0804
rtibia 22.1686
rfoot -6.87517 -15.6066
rtoes -1.28716
lfemur 8.22336 -1.30945 -26.8915
ltibia 16.8667
lfoot -15.4504 -2.06179
ltoes -1.92928
299
root 0.862608 17.8586 30.1493 -1.21005 1.64898 2.79659
lowerback 10.1687 -1.02497 -4.23604
upperback 0.443642 -1.80566 0.867842
thorax -5.08414 -0.781639 3.55416
lowerneck -16.1243 -2.70818 -1.99908
upperneck 21.2109 -3.61045 1.48218
head 9.41766 -1.67928 0.382245
rclavicle -1.39149e-014 1.90833e-014
rhumerus -35.5522 -30.1335 -73.1935
rradius 20.5084
rwrist 10.2899
rhand -17.4924 22.6945
rfingers 7.12502
rthumb 8.76024 -7.1037
lclavicle -1.39149e-014 1.90833e-014
lhumerus -25.0347 0.980707 80.7554
lradius 30.8381
lwrist 8.12454
lhand -28.5598 26.0188
lfingers 7.12502
lthumb -1.92654 55.9898
rfemur -28.4747 7.70551 15.4404
rtibia 19.5394
rfoot -7.77028 -15.9731
rtoes 0.0793917
lfemur 8.9073 -1.72927 -26.9163
ltibia 16.383
lfoot -15.0539 -2.19213
ltoes -0.921267
300
root 0.846685 17.8359 30.3228 -1.12609 1.80069 2.60125
lowerback 10.0465 -1.10767 -4.11774
upperback 0.536956 -1.8905 0.953387
thorax -4.91052 -0.8317 3.58269
lowerneck -16.6942 -2.73724 -1.97587
upperneck 21.4472 -3.64305 1.44794
head 9.60587 -1.69094 0.353647
rclavicle -5.96354e-015 -4.37326e-015
rhumerus -35.2931 -30.4501 -73.1804
rradius 20.1839
rwrist 10.5358
rhand -17.4594 22.8685
rfingers 7.12502
rthumb 8.79207 -6.92834
lclavicle -5.96354e-015 -4.37326e-015
lhumerus -24.5762 0.824034 80.7527
lradius 30.6851
lwrist 8.43757
lhand -28.4199 25.4464
lfingers 7.12502
lthumb -1.79148 55.4186
rfemur -28.2626 9.05674 14.9912
rtibia 17.4036
rfoot -8.60602 -16.3795
rtoes 1.95824
lfemur 9.80922 -2.04203 -26.6521
ltibia 15.9546
lfoot -15.0447 -2.10559
ltoes -3.48605
301
root 0.839821 17.8145 30.4984 -1.03278 2.10133 2.85252
lowerback 10.0753 -1.22551 -4.29711
upperback 0.393736 -2.07498 0.890128
thorax -5.05673 -0.912774 3.64679
lowerneck -16.4818 -2.77044 -2.05259
upperneck 21.4669 -3.69011 1.51526
head 9.57723 -1.71306 0.386161
rclavicle 3.05631e-015 -8.74653e-015
rhumerus -35.6761 -31.0913 -72.6848
rradius 19.9789
rwrist 11.181
rhand -17.4495 22.4286
rfingers 7.12502
rthumb 8.80163 -7.36784
lclavicle 3.05631e-015 -8.74653e-015
lhumerus -24.511 0.547026 80.7802
lradius 30.4541
lwrist 8.84177
lhand -28.8449 23.1245
lfingers 7.12502
lthumb -2.20196 53.0928
rfemur -28.0709 9.66232 14.2548
rtibia 15.8688
rfoot -9.45716 -16.3653
rtoes 3.00361
lfemur 10.6766 -2.20024 -26.8775
ltibia 15.6178
lfoot -15.2057 -2.00675
ltoes -7.50861
302
root 0.832745 17.8014 30.6737 -0.99299 2.3386 3.20884
lowerback 10.2111 -1.31484 -4.58472
upperback 0.244919 -2.24187 0.793764
thorax -5.26745 -0.980289 3.7394
lowerneck -16.0538 -2.75137 -2.09269
upperneck 21.3424 -3.65656 1.50522
head 9.45389 -1.70595 0.400008
rclavicle -1.97791e-014 1.43125e-014
rhumerus -36.101 -31.0669 -72.5076
rradius 20.142
rwrist 11.0722
rhand -17.2634 22.2867
rfingers 7.12502
rthumb 8.9812 -7.50214
lclavicle -1.97791e-014 1.43125e-014
lhumerus -24.6987 0.66312 80.7168
lradius 30.4783
lwrist 8.54848
lhand -28.8691 21.6126
lfingers 7.12502
lthumb -2.22528 51.5808
rfemur -27.9176 9.71121 13.7329
rtibia 15.057
rfoot -10.1697 -16.1868
rtoes 1.29214
lfemur 11.3281 -2.09977 -27.1417
ltibia 15.3654
lfoot -15.1282 -2.44966
ltoes -9.57016
303
root 0.817487 17.7978 30.859 -1.11763 2.33783 3.28795
lowerback 10.3478 -1.32216 -4.7214
upperback 0.272941 -2.27424 0.784978
thorax -5.30678 -0.992144 3.81645
lowerneck -15.9889 -2.78761 -2.23005
upperneck 21.2858 -3.69087 1.58746
head 9.42735 -1.72459 0.447785
rclavicle 3.31473e-014 -1.15295e-014
rhumerus -36.2474 -30.8236 -72.6253
rradius 20.3579
rwrist 10.695
rhand -17.2184 22.1847
rfingers 7.12502
rthumb 9.02462 -7.60224
lclavicle 3.31473e-014 -1.15295e-014
lhumerus -24.7676 0.831738 80.6531
lradius 30.5495
lwrist 8.17004
lhand -28.7948 23.0174
lfingers 7.12502
lthumb -2.15352 52.9863
rfemur -27.6591 9.48804 13.8551
rtibia 14.8445
rfoot -10.8965 -15.8263
rtoes -2.17395
lfemur 11.9326 -2.05455 -27.116
ltibia 15.4353
lfoot -14.9932 -3.02662
ltoes -9.94802
304
root 0.795651 17.7903 31.0515 -1.23937 2.24622 3.3091
lowerback 10.2585 -1.3044 -4.98531
upperback 0.4719 -2.26889 0.847163
thorax -5.03507 -0.994886 4.02167
lowerneck -16.4051 -2.81544 -2.18488
upperneck 21.345 -3.71108 1.49337
head 9.52291 -1.73744 0.399332
rclavicle -2.17918e-014 7.55382e-015
rhumerus -35.9776 -31.0776 -72.6738
rradius 20.1657
rwrist 10.9302
rhand -17.2468 21.7759
rfingers 7.12502
rthumb 8.99722 -8.01225
lclavicle -2.17918e-014 7.55382e-015
lhumerus -24.4044 0.83409 80.634
lradius 30.4964
lwrist 8.20125
lhand -28.6783 25.3074
lfingers 7.12502
lthumb -2.041 55.2774
rfemur -27.3859 8.92555 14.247
rtibia 14.8837
rfoot -12.0955 -14.932
rtoes -2.069
lfemur 12.3718 -2.15019 -27.0737
ltibia 16.0062
lfoot -15.0664 -3.17329
ltoes -11.2935
305
root 0.773808 17.7772 31.2305 -1.24146 2.10468 3.05371
lowerback 10.099 -1.28641 -4.82625
upperback 0.606665 -2.21245 0.900539
thorax -4.8134 -0.979798 3.97078
lowerneck -16.7122 -2.81712 -1.91946
upperneck 21.389 -3.72901 1.28366
head 9.58568 -1.74553 0.276062
rclavicle -3.91854e-014 3.97569e-015
rhumerus -35.8632 -32.0267 -72.3878
rradius 19.6759
rwrist 11.935
rhand -17.3452 21.9576
rfingers 7.12502
rthumb 8.9022 -7.83458
lclavicle -3.91854e-014 3.97569e-015
lhumerus -24.0293 0.570155 80.5496
lradius 30.3688
lwrist 8.38205
lhand -28.5779 25.3936
lfingers 7.12502
lthumb -1.94407 55.3645
rfemur -27.4007 8.39865 14.9709
rtibia 15.3682
rfoot -11.1033 -13.9195
rtoes -2.03014
lfemur 12.7729 -2.37188 -26.7631
ltibia 16.819
lfoot -15.1829 -2.88927
ltoes -13.4251
306
root 0.753996 17.7615 31.4024 -1.25426 1.93156 2.85022
lowerback 10.2306 -1.24037 -4.68642
upperback 0.512205 -2.14104 0.954092
thorax -4.99672 -0.939583 3.9459
lowerneck -16.5808 -2.81605 -1.83976
upperneck 21.4318 -3.73211 1.19827
head 9.57282 -1.75113 0.234505
rclavicle 1.50082e-014 -9.93923e-015
rhumerus -36.1973 -32.3078 -72.1245
rradius 19.587
rwrist 12.2325
rhand -17.1384 22.1267
rfingers 7.12502
rthumb 9.10181 -7.65694
lclavicle 1.50082e-014 -9.93923e-015
lhumerus -24.2116 0.466697 80.5368
lradius 30.3579
lwrist 8.44778
lhand -28.7551 24.7066
lfingers 7.12502
lthumb -2.11516 54.6758
rfemur -27.6373 7.55468 15.7944
rtibia 16.5065
rfoot -9.84065 -12.5966
rtoes -1.76787
lfemur 12.7024 -2.58956 -26.5095
ltibia 17.4726
lfoot -14.5641 -3.32269
ltoes -11.4556
307
root 0.742536 17.7367 31.585 -1.34864 1.91048 2.92936
lowerback 10.5368 -1.27903 -4.77265
upperback 0.311593 -2.2222 0.953099
thorax -5.3687 -0.961982 4.02174
lowerneck -16.2639 -2.79287 -1.91235
upperneck 21.504 -3.69635 1.23045
head 9.54087 -1.73908 0.266328
rclavicle 2.38542e-014 1.07344e-014
rhumerus -36.565 -31.7114 -72.1138
rradius 19.6451
rwrist 11.8614
rhand -16.9122 22.0395
rfingers 7.12502
rthumb 9.3201 -7.73443
lclavicle 2.38542e-014 1.07344e-014
lhumerus -24.6028 0.416977 80.5345
lradius 30.2559
lwrist 8.61355
lhand -29.1872 23.1755
lfingers 7.12502
lthumb -2.53246 53.1402
rfemur -27.7885 6.58148 16.2427
rtibia 17.9083
rfoot -9.60632 -11.3744
rtoes -2.08659
lfemur 13.437 -3.01171 -26.6435
ltibia 18.2474
lfoot -15.0622 -2.67364
ltoes -12.1361
308
root 0.732948 17.7097 31.782 -1.41567 1.95481 3.21368
lowerback 10.5246 -1.30553 -4.98684
upperback 0.309979 -2.28817 0.856305
thorax -5.35277 -0.990682 4.04958
lowerneck -16.1901 -2.78144 -2.0123
upperneck 21.466 -3.67828 1.32847
head 9.51761 -1.72848 0.320328
rclavicle -2.67862e-014 -6.36111e-015
rhumerus -36.5353 -31.774 -72.0542
rradius 19.3264
rwrist 11.9731
rhand -17.1439 22.4454
rfingers 7.12502
rthumb 9.09648 -7.33841
lclavicle -2.67862e-014 -6.36111e-015
lhumerus -24.5375 0.502055 80.4842
lradius 29.9508
lwrist 8.3684
lhand -28.6768 22.7102
lfingers 7.12502
lthumb -2.03953 52.6802
rfemur -27.8377 5.95996 16.2973
rtibia 19.3222
rfoot -9.97336 -10.7362
rtoes -2.83197
lfemur 13.8688 -3.27695 -27.042
ltibia 18.9052
lfoot -14.8966 -2.71087
ltoes -17.5414
309
root 0.718941 17.6946 31.9914 -1.54865 1.92955 3.44906
lowerback 10.2099 -1.30345 -5.15804
upperback 0.522504 -2.28975 0.736837
thorax -4.95037 -1.0062 4.00271
lowerneck -16.1808 -2.72987 -1.94327
upperneck 21.232 -3.60891 1.28457
head 9.43029 -1.69654 0.304167
rclavicle -7.40473e-015 -2.50469e-014
rhumerus -36.3896 -32.3415 -71.957
rradius 19.0086
rwrist 12.5948
rhand -17.6264 22.3395
rfingers 7.12502
rthumb 8.63085 -7.4641
lclavicle -7.40473e-015 -2.50469e-014
lhumerus -24.3375 0.809366 80.3435
lradius 29.827
lwrist 7.82028
lhand -28.5584 24.6245
lfingers 7.12502
lthumb -1.92523 54.5955
rfemur -27.6143 5.68733 16.3433
rtibia 20.5855
rfoot -10.3959 -10.2511
rtoes -3.52461
lfemur 14.7062 -3.46683 -27.3271
ltibia 19.6922
lfoot -14.9035 -2.30805
ltoes -20.5124
310
root 0.694048 17.698 32.2011 -1.58726 1.8169 3.15564
lowerback 9.77501 -1.31382 -4.99147
upperback 0.673754 -2.25249 0.838373
thorax -4.55378 -1.00644 3.98972
lowerneck -16.3597 -2.71951 -1.86565
upperneck 21.2956 -3.57791 1.13919
head 9.48071 -1.6908 0.242427
rclavicle -3.88127e-014 -1.15295e-014
rhumerus -36.4046 -33.0708 -71.5807
rradius 18.6927
rwrist 13.5618
rhand -17.4697 21.8236
rfingers 7.12502
rthumb 8.78208 -7.97372
lclavicle -3.88127e-014 -1.15295e-014
lhumerus -24.4009 1.15108 80.2907
lradius 29.9652
lwrist 7.58162
lhand -28.6072 25.9672
lfingers 7.12502
lthumb -1.97239 55.9378
rfemur -27.424 6.08171 16.8336
rtibia 21.6509
rfoot -10.6629 -10.072
rtoes -2.72149
lfemur 14.3131 -3.50124 -26.9151
ltibia 20.6655
lfoot -13.7629 -3.72929
ltoes -19.4367
